# xmcd CD database file
#
# Track frame offsets:
#	150
#	21324
#	34975
#	62648
#	85091
#	110569
#	124259
#	137902
#	163280
#	185852
#	213178
#	242019
#	287336
#	314392
#
# Disc length: 4365 seconds
#
# Revision: 0
# Processed by: cddbd v1.5.1PL2 Copyright (c) Steve Scherf et al.
# Submitted via: CDex 1.51
#
DISCID=d0110b0e
DTITLE=AA.VV. - Armonie Indiane
DYEAR=1900
DGENRE=New Age
TTITLE0=James Asher - Temple Gates
TTITLE1=Namaste' - Jaya Shiva Shankara
TTITLE2=Prem Joshua - Deccan Queen
TTITLE3=Terra Incognita - Kafi
TTITLE4=David Persons - The Himgiri
TTITLE5=Namaste' - Gayastri Mantra
TTITLE6=Al Gromer Khan - Mahal
TTITLE7=James Asher - Red Desert
TTITLE8=Hariprasad Chaurasia - In raag Des
TTITLE9=Ajad - Devil and Eve
TTITLE10=Hariprasad Chaurasia - Bengali Folksong
TTITLE11=Ustad Usman Khan - Raga Hansadhwani Dancing Spring
TTITLE12=S. Capitanata - Morning Meditation
TTITLE13=Deuter - Final
EXTD=
EXTT0=
EXTT1=
EXTT2=
EXTT3=
EXTT4=
EXTT5=
EXTT6=
EXTT7=
EXTT8=
EXTT9=
EXTT10=
EXTT11=
EXTT12=
EXTT13=
PLAYORDER=
